# xmcd
# 
# Track frame offsets:
#     225
#     87373
#     136605
# 
# Disc length: 2408
# 
# Revision: 1
# Processed by: cddbd v1.5.2PL0 Copyright (c) Steve Scherf et al.
# Submitted via: BonkEnc v1.0.8
# 
DISCID=1b096503
DTITLE=Neil Ardley, Ian Carr, Mike Gibbs, Stan Tracey - Will Power - A Shakespeare Birthday Celebration In Music
DYEAR=1974
DGENRE=Contemporary Jazz
TTITLE0=Sonnet
TTITLE1=Shall I Compare Thee
TTITLE2=Charade For The Bard
EXTD=YEAR: 1975
EXTT0=
EXTT1=
EXTT2=
PLAYORDER=
